<mxfile host="app.diagrams.net" modified="2023-11-15T15:12:09.614Z" agent="Mozilla/5.0 (Macintosh; Intel Mac OS X 10_15_7) AppleWebKit/605.1.15 (KHTML, like Gecko) Version/16.6.1 Safari/605.1.15" etag="_Uz4l0htTFLB8Wl8WbjQ" version="22.1.1" type="device">
  <diagram id="C5RBs43oDa-KdzZeNtuy" name="Page-1">
    <mxGraphModel dx="1134" dy="749" grid="1" gridSize="10" guides="1" tooltips="1" connect="1" arrows="1" fold="1" page="1" pageScale="1" pageWidth="1654" pageHeight="2336" math="0" shadow="0">
      <root>
        <mxCell id="WIyWlLk6GJQsqaUBKTNV-0" />
        <mxCell id="WIyWlLk6GJQsqaUBKTNV-1" parent="WIyWlLk6GJQsqaUBKTNV-0" />
        <mxCell id="zkfFHV4jXpPFQw0GAbJ--0" value="Hayvanlar" style="swimlane;fontStyle=2;align=center;verticalAlign=top;childLayout=stackLayout;horizontal=1;startSize=26;horizontalStack=0;resizeParent=1;resizeLast=0;collapsible=1;marginBottom=0;rounded=0;shadow=0;strokeWidth=1;" parent="WIyWlLk6GJQsqaUBKTNV-1" vertex="1">
          <mxGeometry x="560" y="60" width="160" height="190" as="geometry">
            <mxRectangle x="230" y="140" width="160" height="26" as="alternateBounds" />
          </mxGeometry>
        </mxCell>
        <mxCell id="zkfFHV4jXpPFQw0GAbJ--1" value="Tur adi" style="text;align=left;verticalAlign=top;spacingLeft=4;spacingRight=4;overflow=hidden;rotatable=0;points=[[0,0.5],[1,0.5]];portConstraint=eastwest;" parent="zkfFHV4jXpPFQw0GAbJ--0" vertex="1">
          <mxGeometry y="26" width="160" height="26" as="geometry" />
        </mxCell>
        <mxCell id="zkfFHV4jXpPFQw0GAbJ--2" value="Agirligi" style="text;align=left;verticalAlign=top;spacingLeft=4;spacingRight=4;overflow=hidden;rotatable=0;points=[[0,0.5],[1,0.5]];portConstraint=eastwest;rounded=0;shadow=0;html=0;" parent="zkfFHV4jXpPFQw0GAbJ--0" vertex="1">
          <mxGeometry y="52" width="160" height="26" as="geometry" />
        </mxCell>
        <mxCell id="zkfFHV4jXpPFQw0GAbJ--3" value="Yasi" style="text;align=left;verticalAlign=top;spacingLeft=4;spacingRight=4;overflow=hidden;rotatable=0;points=[[0,0.5],[1,0.5]];portConstraint=eastwest;rounded=0;shadow=0;html=0;" parent="zkfFHV4jXpPFQw0GAbJ--0" vertex="1">
          <mxGeometry y="78" width="160" height="26" as="geometry" />
        </mxCell>
        <mxCell id="zkfFHV4jXpPFQw0GAbJ--4" value="" style="line;html=1;strokeWidth=1;align=left;verticalAlign=middle;spacingTop=-1;spacingLeft=3;spacingRight=3;rotatable=0;labelPosition=right;points=[];portConstraint=eastwest;" parent="zkfFHV4jXpPFQw0GAbJ--0" vertex="1">
          <mxGeometry y="104" width="160" height="8" as="geometry" />
        </mxCell>
        <mxCell id="hwI_Mk9WTxf3w8bSnteX-63" value="&amp;nbsp;getDosage ()" style="text;html=1;align=center;verticalAlign=middle;resizable=0;points=[];autosize=1;strokeColor=none;fillColor=none;" vertex="1" parent="zkfFHV4jXpPFQw0GAbJ--0">
          <mxGeometry y="112" width="160" height="30" as="geometry" />
        </mxCell>
        <mxCell id="hwI_Mk9WTxf3w8bSnteX-62" value="getFeedSchedule ()" style="text;html=1;align=center;verticalAlign=middle;resizable=0;points=[];autosize=1;strokeColor=none;fillColor=none;" vertex="1" parent="zkfFHV4jXpPFQw0GAbJ--0">
          <mxGeometry y="142" width="160" height="30" as="geometry" />
        </mxCell>
        <mxCell id="zkfFHV4jXpPFQw0GAbJ--6" value="Atgiller" style="swimlane;fontStyle=2;align=center;verticalAlign=top;childLayout=stackLayout;horizontal=1;startSize=26;horizontalStack=0;resizeParent=1;resizeLast=0;collapsible=1;marginBottom=0;rounded=0;shadow=0;strokeWidth=1;" parent="WIyWlLk6GJQsqaUBKTNV-1" vertex="1">
          <mxGeometry x="200" y="370" width="160" height="146" as="geometry">
            <mxRectangle x="130" y="380" width="160" height="26" as="alternateBounds" />
          </mxGeometry>
        </mxCell>
        <mxCell id="zkfFHV4jXpPFQw0GAbJ--9" value="" style="line;html=1;strokeWidth=1;align=left;verticalAlign=middle;spacingTop=-1;spacingLeft=3;spacingRight=3;rotatable=0;labelPosition=right;points=[];portConstraint=eastwest;" parent="zkfFHV4jXpPFQw0GAbJ--6" vertex="1">
          <mxGeometry y="26" width="160" height="8" as="geometry" />
        </mxCell>
        <mxCell id="hwI_Mk9WTxf3w8bSnteX-66" value="getFeedSchedule ()" style="text;html=1;align=center;verticalAlign=middle;resizable=0;points=[];autosize=1;strokeColor=none;fillColor=none;" vertex="1" parent="zkfFHV4jXpPFQw0GAbJ--6">
          <mxGeometry y="34" width="160" height="30" as="geometry" />
        </mxCell>
        <mxCell id="hwI_Mk9WTxf3w8bSnteX-65" value="&amp;nbsp;getDosage ()" style="text;html=1;align=center;verticalAlign=middle;resizable=0;points=[];autosize=1;strokeColor=none;fillColor=none;" vertex="1" parent="zkfFHV4jXpPFQw0GAbJ--6">
          <mxGeometry y="64" width="160" height="30" as="geometry" />
        </mxCell>
        <mxCell id="zkfFHV4jXpPFQw0GAbJ--12" value="" style="endArrow=block;endSize=10;endFill=0;shadow=0;strokeWidth=1;rounded=0;edgeStyle=elbowEdgeStyle;elbow=vertical;" parent="WIyWlLk6GJQsqaUBKTNV-1" source="zkfFHV4jXpPFQw0GAbJ--6" target="zkfFHV4jXpPFQw0GAbJ--0" edge="1">
          <mxGeometry width="160" relative="1" as="geometry">
            <mxPoint x="540" y="203" as="sourcePoint" />
            <mxPoint x="540" y="203" as="targetPoint" />
          </mxGeometry>
        </mxCell>
        <mxCell id="zkfFHV4jXpPFQw0GAbJ--13" value="Kedigiller" style="swimlane;fontStyle=2;align=center;verticalAlign=top;childLayout=stackLayout;horizontal=1;startSize=26;horizontalStack=0;resizeParent=1;resizeLast=0;collapsible=1;marginBottom=0;rounded=0;shadow=0;strokeWidth=1;" parent="WIyWlLk6GJQsqaUBKTNV-1" vertex="1">
          <mxGeometry x="560" y="360" width="160" height="146" as="geometry">
            <mxRectangle x="340" y="380" width="170" height="26" as="alternateBounds" />
          </mxGeometry>
        </mxCell>
        <mxCell id="zkfFHV4jXpPFQw0GAbJ--15" value="" style="line;html=1;strokeWidth=1;align=left;verticalAlign=middle;spacingTop=-1;spacingLeft=3;spacingRight=3;rotatable=0;labelPosition=right;points=[];portConstraint=eastwest;" parent="zkfFHV4jXpPFQw0GAbJ--13" vertex="1">
          <mxGeometry y="26" width="160" height="8" as="geometry" />
        </mxCell>
        <mxCell id="hwI_Mk9WTxf3w8bSnteX-67" value="getFeedSchedule ()" style="text;html=1;align=center;verticalAlign=middle;resizable=0;points=[];autosize=1;strokeColor=none;fillColor=none;" vertex="1" parent="zkfFHV4jXpPFQw0GAbJ--13">
          <mxGeometry y="34" width="160" height="30" as="geometry" />
        </mxCell>
        <mxCell id="hwI_Mk9WTxf3w8bSnteX-68" value="&amp;nbsp;getDosage ()" style="text;html=1;align=center;verticalAlign=middle;resizable=0;points=[];autosize=1;strokeColor=none;fillColor=none;" vertex="1" parent="zkfFHV4jXpPFQw0GAbJ--13">
          <mxGeometry y="64" width="160" height="30" as="geometry" />
        </mxCell>
        <mxCell id="zkfFHV4jXpPFQw0GAbJ--16" value="" style="endArrow=block;endSize=10;endFill=0;shadow=0;strokeWidth=1;rounded=0;edgeStyle=elbowEdgeStyle;elbow=vertical;" parent="WIyWlLk6GJQsqaUBKTNV-1" source="zkfFHV4jXpPFQw0GAbJ--13" target="zkfFHV4jXpPFQw0GAbJ--0" edge="1">
          <mxGeometry width="160" relative="1" as="geometry">
            <mxPoint x="550" y="373" as="sourcePoint" />
            <mxPoint x="650" y="271" as="targetPoint" />
          </mxGeometry>
        </mxCell>
        <mxCell id="zkfFHV4jXpPFQw0GAbJ--17" value="Kemirgenler" style="swimlane;fontStyle=2;align=center;verticalAlign=top;childLayout=stackLayout;horizontal=1;startSize=26;horizontalStack=0;resizeParent=1;resizeLast=0;collapsible=1;marginBottom=0;rounded=0;shadow=0;strokeWidth=1;" parent="WIyWlLk6GJQsqaUBKTNV-1" vertex="1">
          <mxGeometry x="970" y="360" width="160" height="150" as="geometry">
            <mxRectangle x="550" y="140" width="160" height="26" as="alternateBounds" />
          </mxGeometry>
        </mxCell>
        <mxCell id="zkfFHV4jXpPFQw0GAbJ--23" value="" style="line;html=1;strokeWidth=1;align=left;verticalAlign=middle;spacingTop=-1;spacingLeft=3;spacingRight=3;rotatable=0;labelPosition=right;points=[];portConstraint=eastwest;" parent="zkfFHV4jXpPFQw0GAbJ--17" vertex="1">
          <mxGeometry y="26" width="160" height="8" as="geometry" />
        </mxCell>
        <mxCell id="hwI_Mk9WTxf3w8bSnteX-69" value="getFeedSchedule ()" style="text;html=1;align=center;verticalAlign=middle;resizable=0;points=[];autosize=1;strokeColor=none;fillColor=none;" vertex="1" parent="zkfFHV4jXpPFQw0GAbJ--17">
          <mxGeometry y="34" width="160" height="30" as="geometry" />
        </mxCell>
        <mxCell id="hwI_Mk9WTxf3w8bSnteX-70" value="&amp;nbsp;getDosage ()" style="text;html=1;align=center;verticalAlign=middle;resizable=0;points=[];autosize=1;strokeColor=none;fillColor=none;" vertex="1" parent="zkfFHV4jXpPFQw0GAbJ--17">
          <mxGeometry y="64" width="160" height="30" as="geometry" />
        </mxCell>
        <mxCell id="hwI_Mk9WTxf3w8bSnteX-0" value="" style="endArrow=block;endSize=10;endFill=0;shadow=0;strokeWidth=1;rounded=0;edgeStyle=elbowEdgeStyle;elbow=vertical;exitX=0.5;exitY=0;exitDx=0;exitDy=0;" edge="1" parent="WIyWlLk6GJQsqaUBKTNV-1" source="zkfFHV4jXpPFQw0GAbJ--17">
          <mxGeometry width="160" relative="1" as="geometry">
            <mxPoint x="660" y="360" as="sourcePoint" />
            <mxPoint x="640" y="258" as="targetPoint" />
          </mxGeometry>
        </mxCell>
        <mxCell id="hwI_Mk9WTxf3w8bSnteX-1" value="At" style="swimlane;fontStyle=0;align=center;verticalAlign=top;childLayout=stackLayout;horizontal=1;startSize=26;horizontalStack=0;resizeParent=1;resizeLast=0;collapsible=1;marginBottom=0;rounded=0;shadow=0;strokeWidth=1;" vertex="1" parent="WIyWlLk6GJQsqaUBKTNV-1">
          <mxGeometry x="20" y="640" width="120" height="150" as="geometry">
            <mxRectangle x="130" y="380" width="160" height="26" as="alternateBounds" />
          </mxGeometry>
        </mxCell>
        <mxCell id="hwI_Mk9WTxf3w8bSnteX-110" value="Name" style="text;align=left;verticalAlign=top;spacingLeft=4;spacingRight=4;overflow=hidden;rotatable=0;points=[[0,0.5],[1,0.5]];portConstraint=eastwest;" vertex="1" parent="hwI_Mk9WTxf3w8bSnteX-1">
          <mxGeometry y="26" width="120" height="26" as="geometry" />
        </mxCell>
        <mxCell id="hwI_Mk9WTxf3w8bSnteX-111" value="Id" style="text;align=left;verticalAlign=top;spacingLeft=4;spacingRight=4;overflow=hidden;rotatable=0;points=[[0,0.5],[1,0.5]];portConstraint=eastwest;rounded=0;shadow=0;html=0;" vertex="1" parent="hwI_Mk9WTxf3w8bSnteX-1">
          <mxGeometry y="52" width="120" height="26" as="geometry" />
        </mxCell>
        <mxCell id="hwI_Mk9WTxf3w8bSnteX-4" value="" style="line;html=1;strokeWidth=1;align=left;verticalAlign=middle;spacingTop=-1;spacingLeft=3;spacingRight=3;rotatable=0;labelPosition=right;points=[];portConstraint=eastwest;" vertex="1" parent="hwI_Mk9WTxf3w8bSnteX-1">
          <mxGeometry y="78" width="120" height="8" as="geometry" />
        </mxCell>
        <mxCell id="hwI_Mk9WTxf3w8bSnteX-55" value="getDosage ()" style="text;html=1;align=center;verticalAlign=middle;resizable=0;points=[];autosize=1;strokeColor=none;fillColor=none;" vertex="1" parent="hwI_Mk9WTxf3w8bSnteX-1">
          <mxGeometry y="86" width="120" height="30" as="geometry" />
        </mxCell>
        <mxCell id="hwI_Mk9WTxf3w8bSnteX-75" value="getFeedSchedule ()" style="text;html=1;align=center;verticalAlign=middle;resizable=0;points=[];autosize=1;strokeColor=none;fillColor=none;" vertex="1" parent="hwI_Mk9WTxf3w8bSnteX-1">
          <mxGeometry y="116" width="120" height="30" as="geometry" />
        </mxCell>
        <mxCell id="hwI_Mk9WTxf3w8bSnteX-7" value="Zebra" style="swimlane;fontStyle=0;align=center;verticalAlign=top;childLayout=stackLayout;horizontal=1;startSize=26;horizontalStack=0;resizeParent=1;resizeLast=0;collapsible=1;marginBottom=0;rounded=0;shadow=0;strokeWidth=1;" vertex="1" parent="WIyWlLk6GJQsqaUBKTNV-1">
          <mxGeometry x="220" y="640" width="110" height="160" as="geometry">
            <mxRectangle x="130" y="380" width="160" height="26" as="alternateBounds" />
          </mxGeometry>
        </mxCell>
        <mxCell id="hwI_Mk9WTxf3w8bSnteX-112" value="Name" style="text;align=left;verticalAlign=top;spacingLeft=4;spacingRight=4;overflow=hidden;rotatable=0;points=[[0,0.5],[1,0.5]];portConstraint=eastwest;" vertex="1" parent="hwI_Mk9WTxf3w8bSnteX-7">
          <mxGeometry y="26" width="110" height="26" as="geometry" />
        </mxCell>
        <mxCell id="hwI_Mk9WTxf3w8bSnteX-113" value="Id" style="text;align=left;verticalAlign=top;spacingLeft=4;spacingRight=4;overflow=hidden;rotatable=0;points=[[0,0.5],[1,0.5]];portConstraint=eastwest;rounded=0;shadow=0;html=0;" vertex="1" parent="hwI_Mk9WTxf3w8bSnteX-7">
          <mxGeometry y="52" width="110" height="26" as="geometry" />
        </mxCell>
        <mxCell id="hwI_Mk9WTxf3w8bSnteX-10" value="" style="line;html=1;strokeWidth=1;align=left;verticalAlign=middle;spacingTop=-1;spacingLeft=3;spacingRight=3;rotatable=0;labelPosition=right;points=[];portConstraint=eastwest;" vertex="1" parent="hwI_Mk9WTxf3w8bSnteX-7">
          <mxGeometry y="78" width="110" height="8" as="geometry" />
        </mxCell>
        <mxCell id="hwI_Mk9WTxf3w8bSnteX-56" value="&amp;nbsp;getDosage ()" style="text;html=1;align=center;verticalAlign=middle;resizable=0;points=[];autosize=1;strokeColor=none;fillColor=none;" vertex="1" parent="hwI_Mk9WTxf3w8bSnteX-7">
          <mxGeometry y="86" width="110" height="30" as="geometry" />
        </mxCell>
        <mxCell id="hwI_Mk9WTxf3w8bSnteX-82" value="getFeedSchedule ()" style="text;html=1;align=center;verticalAlign=middle;resizable=0;points=[];autosize=1;strokeColor=none;fillColor=none;" vertex="1" parent="hwI_Mk9WTxf3w8bSnteX-7">
          <mxGeometry y="116" width="110" height="30" as="geometry" />
        </mxCell>
        <mxCell id="hwI_Mk9WTxf3w8bSnteX-13" value="Esek" style="swimlane;fontStyle=0;align=center;verticalAlign=top;childLayout=stackLayout;horizontal=1;startSize=26;horizontalStack=0;resizeParent=1;resizeLast=0;collapsible=1;marginBottom=0;rounded=0;shadow=0;strokeWidth=1;" vertex="1" parent="WIyWlLk6GJQsqaUBKTNV-1">
          <mxGeometry x="380" y="650" width="110" height="150" as="geometry">
            <mxRectangle x="130" y="380" width="160" height="26" as="alternateBounds" />
          </mxGeometry>
        </mxCell>
        <mxCell id="hwI_Mk9WTxf3w8bSnteX-117" value="Name" style="text;align=left;verticalAlign=top;spacingLeft=4;spacingRight=4;overflow=hidden;rotatable=0;points=[[0,0.5],[1,0.5]];portConstraint=eastwest;" vertex="1" parent="hwI_Mk9WTxf3w8bSnteX-13">
          <mxGeometry y="26" width="110" height="26" as="geometry" />
        </mxCell>
        <mxCell id="hwI_Mk9WTxf3w8bSnteX-118" value="Id" style="text;align=left;verticalAlign=top;spacingLeft=4;spacingRight=4;overflow=hidden;rotatable=0;points=[[0,0.5],[1,0.5]];portConstraint=eastwest;rounded=0;shadow=0;html=0;" vertex="1" parent="hwI_Mk9WTxf3w8bSnteX-13">
          <mxGeometry y="52" width="110" height="26" as="geometry" />
        </mxCell>
        <mxCell id="hwI_Mk9WTxf3w8bSnteX-16" value="" style="line;html=1;strokeWidth=1;align=left;verticalAlign=middle;spacingTop=-1;spacingLeft=3;spacingRight=3;rotatable=0;labelPosition=right;points=[];portConstraint=eastwest;" vertex="1" parent="hwI_Mk9WTxf3w8bSnteX-13">
          <mxGeometry y="78" width="110" height="8" as="geometry" />
        </mxCell>
        <mxCell id="hwI_Mk9WTxf3w8bSnteX-81" value="&amp;nbsp;getDosage ()" style="text;html=1;align=center;verticalAlign=middle;resizable=0;points=[];autosize=1;strokeColor=none;fillColor=none;" vertex="1" parent="hwI_Mk9WTxf3w8bSnteX-13">
          <mxGeometry y="86" width="110" height="30" as="geometry" />
        </mxCell>
        <mxCell id="hwI_Mk9WTxf3w8bSnteX-88" value="getFeedSchedule ()" style="text;html=1;align=center;verticalAlign=middle;resizable=0;points=[];autosize=1;strokeColor=none;fillColor=none;" vertex="1" parent="hwI_Mk9WTxf3w8bSnteX-13">
          <mxGeometry y="116" width="110" height="30" as="geometry" />
        </mxCell>
        <mxCell id="hwI_Mk9WTxf3w8bSnteX-19" value="Kaplan" style="swimlane;fontStyle=0;align=center;verticalAlign=top;childLayout=stackLayout;horizontal=1;startSize=26;horizontalStack=0;resizeParent=1;resizeLast=0;collapsible=1;marginBottom=0;rounded=0;shadow=0;strokeWidth=1;" vertex="1" parent="WIyWlLk6GJQsqaUBKTNV-1">
          <mxGeometry x="500" y="600" width="110" height="146" as="geometry">
            <mxRectangle x="130" y="380" width="160" height="26" as="alternateBounds" />
          </mxGeometry>
        </mxCell>
        <mxCell id="hwI_Mk9WTxf3w8bSnteX-20" value="Name" style="text;align=left;verticalAlign=top;spacingLeft=4;spacingRight=4;overflow=hidden;rotatable=0;points=[[0,0.5],[1,0.5]];portConstraint=eastwest;" vertex="1" parent="hwI_Mk9WTxf3w8bSnteX-19">
          <mxGeometry y="26" width="110" height="26" as="geometry" />
        </mxCell>
        <mxCell id="hwI_Mk9WTxf3w8bSnteX-21" value="Id" style="text;align=left;verticalAlign=top;spacingLeft=4;spacingRight=4;overflow=hidden;rotatable=0;points=[[0,0.5],[1,0.5]];portConstraint=eastwest;rounded=0;shadow=0;html=0;" vertex="1" parent="hwI_Mk9WTxf3w8bSnteX-19">
          <mxGeometry y="52" width="110" height="26" as="geometry" />
        </mxCell>
        <mxCell id="hwI_Mk9WTxf3w8bSnteX-22" value="" style="line;html=1;strokeWidth=1;align=left;verticalAlign=middle;spacingTop=-1;spacingLeft=3;spacingRight=3;rotatable=0;labelPosition=right;points=[];portConstraint=eastwest;" vertex="1" parent="hwI_Mk9WTxf3w8bSnteX-19">
          <mxGeometry y="78" width="110" height="8" as="geometry" />
        </mxCell>
        <mxCell id="hwI_Mk9WTxf3w8bSnteX-58" value="&amp;nbsp;getDosage ()" style="text;html=1;align=center;verticalAlign=middle;resizable=0;points=[];autosize=1;strokeColor=none;fillColor=none;" vertex="1" parent="hwI_Mk9WTxf3w8bSnteX-19">
          <mxGeometry y="86" width="110" height="30" as="geometry" />
        </mxCell>
        <mxCell id="hwI_Mk9WTxf3w8bSnteX-97" value="getFeedSchedule ()" style="text;html=1;align=center;verticalAlign=middle;resizable=0;points=[];autosize=1;strokeColor=none;fillColor=none;" vertex="1" parent="hwI_Mk9WTxf3w8bSnteX-19">
          <mxGeometry y="116" width="110" height="30" as="geometry" />
        </mxCell>
        <mxCell id="hwI_Mk9WTxf3w8bSnteX-25" value="Aslan" style="swimlane;fontStyle=0;align=center;verticalAlign=top;childLayout=stackLayout;horizontal=1;startSize=26;horizontalStack=0;resizeParent=1;resizeLast=0;collapsible=1;marginBottom=0;rounded=0;shadow=0;strokeWidth=1;" vertex="1" parent="WIyWlLk6GJQsqaUBKTNV-1">
          <mxGeometry x="670" y="600" width="110" height="146" as="geometry">
            <mxRectangle x="130" y="380" width="160" height="26" as="alternateBounds" />
          </mxGeometry>
        </mxCell>
        <mxCell id="hwI_Mk9WTxf3w8bSnteX-26" value="Name" style="text;align=left;verticalAlign=top;spacingLeft=4;spacingRight=4;overflow=hidden;rotatable=0;points=[[0,0.5],[1,0.5]];portConstraint=eastwest;" vertex="1" parent="hwI_Mk9WTxf3w8bSnteX-25">
          <mxGeometry y="26" width="110" height="26" as="geometry" />
        </mxCell>
        <mxCell id="hwI_Mk9WTxf3w8bSnteX-27" value="Id" style="text;align=left;verticalAlign=top;spacingLeft=4;spacingRight=4;overflow=hidden;rotatable=0;points=[[0,0.5],[1,0.5]];portConstraint=eastwest;rounded=0;shadow=0;html=0;" vertex="1" parent="hwI_Mk9WTxf3w8bSnteX-25">
          <mxGeometry y="52" width="110" height="26" as="geometry" />
        </mxCell>
        <mxCell id="hwI_Mk9WTxf3w8bSnteX-28" value="" style="line;html=1;strokeWidth=1;align=left;verticalAlign=middle;spacingTop=-1;spacingLeft=3;spacingRight=3;rotatable=0;labelPosition=right;points=[];portConstraint=eastwest;" vertex="1" parent="hwI_Mk9WTxf3w8bSnteX-25">
          <mxGeometry y="78" width="110" height="8" as="geometry" />
        </mxCell>
        <mxCell id="hwI_Mk9WTxf3w8bSnteX-59" value="&amp;nbsp;getDosage ()" style="text;html=1;align=center;verticalAlign=middle;resizable=0;points=[];autosize=1;strokeColor=none;fillColor=none;" vertex="1" parent="hwI_Mk9WTxf3w8bSnteX-25">
          <mxGeometry y="86" width="110" height="30" as="geometry" />
        </mxCell>
        <mxCell id="hwI_Mk9WTxf3w8bSnteX-98" value="getFeedSchedule ()" style="text;html=1;align=center;verticalAlign=middle;resizable=0;points=[];autosize=1;strokeColor=none;fillColor=none;" vertex="1" parent="hwI_Mk9WTxf3w8bSnteX-25">
          <mxGeometry y="116" width="110" height="30" as="geometry" />
        </mxCell>
        <mxCell id="hwI_Mk9WTxf3w8bSnteX-37" value="Sican" style="swimlane;fontStyle=0;align=center;verticalAlign=top;childLayout=stackLayout;horizontal=1;startSize=26;horizontalStack=0;resizeParent=1;resizeLast=0;collapsible=1;marginBottom=0;rounded=0;shadow=0;strokeWidth=1;" vertex="1" parent="WIyWlLk6GJQsqaUBKTNV-1">
          <mxGeometry x="910" y="604" width="110" height="146" as="geometry">
            <mxRectangle x="130" y="380" width="160" height="26" as="alternateBounds" />
          </mxGeometry>
        </mxCell>
        <mxCell id="hwI_Mk9WTxf3w8bSnteX-39" value="Name" style="text;align=left;verticalAlign=top;spacingLeft=4;spacingRight=4;overflow=hidden;rotatable=0;points=[[0,0.5],[1,0.5]];portConstraint=eastwest;rounded=0;shadow=0;html=0;" vertex="1" parent="hwI_Mk9WTxf3w8bSnteX-37">
          <mxGeometry y="26" width="110" height="26" as="geometry" />
        </mxCell>
        <mxCell id="hwI_Mk9WTxf3w8bSnteX-119" value="Id" style="text;align=left;verticalAlign=top;spacingLeft=4;spacingRight=4;overflow=hidden;rotatable=0;points=[[0,0.5],[1,0.5]];portConstraint=eastwest;rounded=0;shadow=0;html=0;" vertex="1" parent="hwI_Mk9WTxf3w8bSnteX-37">
          <mxGeometry y="52" width="110" height="26" as="geometry" />
        </mxCell>
        <mxCell id="hwI_Mk9WTxf3w8bSnteX-40" value="" style="line;html=1;strokeWidth=1;align=left;verticalAlign=middle;spacingTop=-1;spacingLeft=3;spacingRight=3;rotatable=0;labelPosition=right;points=[];portConstraint=eastwest;" vertex="1" parent="hwI_Mk9WTxf3w8bSnteX-37">
          <mxGeometry y="78" width="110" height="8" as="geometry" />
        </mxCell>
        <mxCell id="hwI_Mk9WTxf3w8bSnteX-60" value="&amp;nbsp;getDosage ()" style="text;html=1;align=center;verticalAlign=middle;resizable=0;points=[];autosize=1;strokeColor=none;fillColor=none;" vertex="1" parent="hwI_Mk9WTxf3w8bSnteX-37">
          <mxGeometry y="86" width="110" height="30" as="geometry" />
        </mxCell>
        <mxCell id="hwI_Mk9WTxf3w8bSnteX-99" value="getFeedSchedule ()" style="text;html=1;align=center;verticalAlign=middle;resizable=0;points=[];autosize=1;strokeColor=none;fillColor=none;" vertex="1" parent="hwI_Mk9WTxf3w8bSnteX-37">
          <mxGeometry y="116" width="110" height="30" as="geometry" />
        </mxCell>
        <mxCell id="hwI_Mk9WTxf3w8bSnteX-43" value="Kunduz" style="swimlane;fontStyle=0;align=center;verticalAlign=top;childLayout=stackLayout;horizontal=1;startSize=26;horizontalStack=0;resizeParent=1;resizeLast=0;collapsible=1;marginBottom=0;rounded=0;shadow=0;strokeWidth=1;" vertex="1" parent="WIyWlLk6GJQsqaUBKTNV-1">
          <mxGeometry x="1070" y="600" width="110" height="146" as="geometry">
            <mxRectangle x="130" y="380" width="160" height="26" as="alternateBounds" />
          </mxGeometry>
        </mxCell>
        <mxCell id="hwI_Mk9WTxf3w8bSnteX-45" value="Name" style="text;align=left;verticalAlign=top;spacingLeft=4;spacingRight=4;overflow=hidden;rotatable=0;points=[[0,0.5],[1,0.5]];portConstraint=eastwest;rounded=0;shadow=0;html=0;" vertex="1" parent="hwI_Mk9WTxf3w8bSnteX-43">
          <mxGeometry y="26" width="110" height="26" as="geometry" />
        </mxCell>
        <mxCell id="hwI_Mk9WTxf3w8bSnteX-120" value="Id" style="text;align=left;verticalAlign=top;spacingLeft=4;spacingRight=4;overflow=hidden;rotatable=0;points=[[0,0.5],[1,0.5]];portConstraint=eastwest;rounded=0;shadow=0;html=0;" vertex="1" parent="hwI_Mk9WTxf3w8bSnteX-43">
          <mxGeometry y="52" width="110" height="26" as="geometry" />
        </mxCell>
        <mxCell id="hwI_Mk9WTxf3w8bSnteX-46" value="" style="line;html=1;strokeWidth=1;align=left;verticalAlign=middle;spacingTop=-1;spacingLeft=3;spacingRight=3;rotatable=0;labelPosition=right;points=[];portConstraint=eastwest;" vertex="1" parent="hwI_Mk9WTxf3w8bSnteX-43">
          <mxGeometry y="78" width="110" height="8" as="geometry" />
        </mxCell>
        <mxCell id="hwI_Mk9WTxf3w8bSnteX-61" value="&amp;nbsp;getDosage ()" style="text;html=1;align=center;verticalAlign=middle;resizable=0;points=[];autosize=1;strokeColor=none;fillColor=none;" vertex="1" parent="hwI_Mk9WTxf3w8bSnteX-43">
          <mxGeometry y="86" width="110" height="30" as="geometry" />
        </mxCell>
        <mxCell id="hwI_Mk9WTxf3w8bSnteX-100" value="getFeedSchedule ()" style="text;html=1;align=center;verticalAlign=middle;resizable=0;points=[];autosize=1;strokeColor=none;fillColor=none;" vertex="1" parent="hwI_Mk9WTxf3w8bSnteX-43">
          <mxGeometry y="116" width="110" height="30" as="geometry" />
        </mxCell>
        <mxCell id="hwI_Mk9WTxf3w8bSnteX-90" value="Extends" style="endArrow=block;endSize=16;endFill=0;html=1;rounded=0;exitX=0.5;exitY=0;exitDx=0;exitDy=0;" edge="1" parent="WIyWlLk6GJQsqaUBKTNV-1" source="hwI_Mk9WTxf3w8bSnteX-19" target="zkfFHV4jXpPFQw0GAbJ--13">
          <mxGeometry width="160" relative="1" as="geometry">
            <mxPoint x="490" y="600" as="sourcePoint" />
            <mxPoint x="650" y="600" as="targetPoint" />
            <Array as="points">
              <mxPoint x="555" y="560" />
              <mxPoint x="640" y="560" />
            </Array>
          </mxGeometry>
        </mxCell>
        <mxCell id="hwI_Mk9WTxf3w8bSnteX-91" value="Extends" style="endArrow=block;endSize=16;endFill=0;html=1;rounded=0;exitX=0.5;exitY=0;exitDx=0;exitDy=0;" edge="1" parent="WIyWlLk6GJQsqaUBKTNV-1" source="hwI_Mk9WTxf3w8bSnteX-1" target="zkfFHV4jXpPFQw0GAbJ--6">
          <mxGeometry width="160" relative="1" as="geometry">
            <mxPoint x="110" y="540" as="sourcePoint" />
            <mxPoint x="270" y="540" as="targetPoint" />
            <Array as="points">
              <mxPoint x="80" y="600" />
              <mxPoint x="280" y="600" />
            </Array>
          </mxGeometry>
        </mxCell>
        <mxCell id="hwI_Mk9WTxf3w8bSnteX-93" value="Extends" style="endArrow=block;endSize=16;endFill=0;html=1;rounded=0;exitX=0.5;exitY=0;exitDx=0;exitDy=0;" edge="1" parent="WIyWlLk6GJQsqaUBKTNV-1" source="hwI_Mk9WTxf3w8bSnteX-13" target="zkfFHV4jXpPFQw0GAbJ--6">
          <mxGeometry width="160" relative="1" as="geometry">
            <mxPoint x="330" y="560" as="sourcePoint" />
            <mxPoint x="490" y="560" as="targetPoint" />
            <Array as="points">
              <mxPoint x="435" y="600" />
              <mxPoint x="280" y="600" />
            </Array>
          </mxGeometry>
        </mxCell>
        <mxCell id="hwI_Mk9WTxf3w8bSnteX-95" value="Extends" style="endArrow=block;endSize=16;endFill=0;html=1;rounded=0;exitX=0.5;exitY=0;exitDx=0;exitDy=0;" edge="1" parent="WIyWlLk6GJQsqaUBKTNV-1" source="hwI_Mk9WTxf3w8bSnteX-7" target="zkfFHV4jXpPFQw0GAbJ--6">
          <mxGeometry x="-0.3115" width="160" relative="1" as="geometry">
            <mxPoint x="260" y="600" as="sourcePoint" />
            <mxPoint x="280" y="520" as="targetPoint" />
            <mxPoint y="-1" as="offset" />
          </mxGeometry>
        </mxCell>
        <mxCell id="hwI_Mk9WTxf3w8bSnteX-96" value="Extends" style="endArrow=block;endSize=16;endFill=0;html=1;rounded=0;exitX=0.5;exitY=0;exitDx=0;exitDy=0;" edge="1" parent="WIyWlLk6GJQsqaUBKTNV-1" source="hwI_Mk9WTxf3w8bSnteX-25" target="zkfFHV4jXpPFQw0GAbJ--13">
          <mxGeometry width="160" relative="1" as="geometry">
            <mxPoint x="565" y="610" as="sourcePoint" />
            <mxPoint x="611" y="520" as="targetPoint" />
            <Array as="points">
              <mxPoint x="725" y="560" />
              <mxPoint x="640" y="560" />
            </Array>
          </mxGeometry>
        </mxCell>
        <mxCell id="hwI_Mk9WTxf3w8bSnteX-103" value="Extends" style="endArrow=block;endSize=16;endFill=0;html=1;rounded=0;" edge="1" parent="WIyWlLk6GJQsqaUBKTNV-1" source="hwI_Mk9WTxf3w8bSnteX-37" target="zkfFHV4jXpPFQw0GAbJ--17">
          <mxGeometry width="160" relative="1" as="geometry">
            <mxPoint x="890" y="540" as="sourcePoint" />
            <mxPoint x="1050" y="540" as="targetPoint" />
            <Array as="points">
              <mxPoint x="960" y="560" />
              <mxPoint x="1050" y="560" />
            </Array>
          </mxGeometry>
        </mxCell>
        <mxCell id="hwI_Mk9WTxf3w8bSnteX-104" value="Extends" style="endArrow=block;endSize=16;endFill=0;html=1;rounded=0;" edge="1" parent="WIyWlLk6GJQsqaUBKTNV-1" source="hwI_Mk9WTxf3w8bSnteX-43" target="zkfFHV4jXpPFQw0GAbJ--17">
          <mxGeometry width="160" relative="1" as="geometry">
            <mxPoint x="1006" y="620" as="sourcePoint" />
            <mxPoint x="1037" y="520" as="targetPoint" />
            <Array as="points">
              <mxPoint x="1120" y="560" />
              <mxPoint x="1060" y="560" />
            </Array>
          </mxGeometry>
        </mxCell>
      </root>
    </mxGraphModel>
  </diagram>
</mxfile>
